<svg id="Calque_1" data-name="Calque 1" xmlns="http://www.w3.org/2000/svg" viewBox="0 0 761.31 159.12"><defs><style>.cls-1,.cls-2{fill:#22273f;}.cls-1{fill-rule:evenodd;}</style></defs><title>OUTSCALE_Dark Blue_CMYK</title><path class="cls-1" d="M78.27,7.93C91.89,7.33,108,10,111,19c4.92,14.73-20,36.2-41.75,46.74-5.33,2.58-8.56,3.29-9.91,3.12a1.43,1.43,0,0,1-1.06-2.19c.77-1.55,4.28-4.71,9-8.14,24.47-17.86,32.42-31,27.8-36.28-3-3.4-15.37-5.77-28.24-5.77-3.5,0-12.69.76-13.63-2.27C52.42,11.77,64.75,8.53,78.27,7.93Z"/><path class="cls-1" d="M47.84,75.06c11.32-.59,25.07,1.18,32.79,6.47a11.76,11.76,0,0,1,5,13c-4.45,15.75-21.09,34.81-58,49.45-11.75,4.66-21,6.44-22.94,5.19s4-11.74,5.8-15.19c5.9-11.17,13.28-22,20.47-32,2.64-3.67,6.73-10,10.43-9.52,3.31.46-.57,7.22-3.12,11.51-4.29,7.21-16.1,27.24-12.2,28.43,8.61,2.65,49-24.91,43.07-40.25-2.77-7.12-20.31-7.8-31.37-7.8-5,0-16,1.06-16.61-2.39C20.43,78.8,37.76,75.59,47.84,75.06Z"/><path class="cls-1" d="M136.07,56.46c6.85,1.11,12.43,2,13.71,4.59,1.44,3-6,3.14-9.78,3.21-18,.32-28.88.64-29.42,6.17-.71,7.13,7.7,14.3,16,24.35,7.58,9.18,16.21,18.24,13.72,26.69-3.1,10.52-17.37,12.74-31,12.74a183.18,183.18,0,0,1-30.52-2.8c-6.46-1.16-5.5-4-3.78-5,1.92-1,12.89-1.06,20.52-1.47,6.27-.34,24.5-.33,27.33-4.55,3.49-5.16-5-14-12.87-23.26C100.24,85.62,89.51,73.7,95.19,65,102.54,53.72,124.05,54.49,136.07,56.46Z"/><path class="cls-2" d="M213.17,75.12c-25.51,0-39.22,13.1-42.55,28.76s4.82,28.76,30.32,28.76,39.23-13.1,42.56-28.76S238.67,75.12,213.17,75.12Zm14.56,28.76c-2.71,12.8-10.3,19.3-24.78,19.3s-19.3-6.5-16.57-19.3,10.3-19.31,24.78-19.31S230.46,91.08,227.73,103.88Z"/><path class="cls-2" d="M281,132.23c25.08,0,34.73-7.85,38.7-26l6-28.25c.39-1.89-.84-2.47-2.41-2.47H311.06l-3.33,16.26-1.91,8.65L304.23,108c-2.22,10.24-9.46,14.85-21.74,14.85-13.5,0-17.12-4.5-15-14.85,0,0,.52-2.58.7-3.36L271,91.79l3.34-16.26H262.19c-1.57,0-3.05.58-3.45,2.47l-6,28.25C248.71,126.16,259.54,132.23,281,132.23Z"/><path class="cls-2" d="M695.06,78.42l-11.43,53.81h58.1l1.21-5.76c.51-2.34-.11-3.12-3-3.12h-38.6l3.28-15.43H738.7a1.79,1.79,0,0,0,1.85-1.37l1.31-6.13c.16-.77-.32-1.36-1.27-1.36H706.47l3.27-15.41H747c1.77,0,3.51,0,4-2.14l1.44-6.79H700C697.21,74.72,695.61,75.87,695.06,78.42Z"/><path class="cls-2" d="M458.68,122.66c1.72-4.24,1.71-8.62-2.48-12.94-2.15-2.2-5.29-4.13-9.65-6.39-19.39-10-24.45-11.17-23.22-16,.68-2.72,2.74-2.84,10.06-2.84h22.73c3.07,0,4.85-1.14,5.37-3.64l1.14-5.29h-28.8c-16.31,0-26.09.1-28.58,10.82-1.84,7.94,5,11.79,18.76,19.64,15.11,8.57,18.56,9.22,17.18,13.75-1.11,3.64-5.09,3.79-11.89,3.79H402.41c-3.07,0-4.84,1.15-5.38,3.64L396,132.23h33.93C445.42,132.23,455.15,131.35,458.68,122.66Z"/><path class="cls-1" d="M583.59,74.69c-21.66,0-34,5-38.76,26.35l-6.08,28.66c-.41,1.92.81,2.5,2.36,2.5h11.72l3.4-16.49h36.55l-3.41,16.49h11.74a3.11,3.11,0,0,0,3.41-2.5L610.61,101C615.09,79.32,601.67,74.69,583.59,74.69Zm12.78,24.62s-.54,2.62-.73,3.41c-.26,1.18-.87,4.22-4.29,4.22H558.19l1.62-7.63c2.34-11,9.38-15,22-15C595.05,84.26,598.52,88.82,596.37,99.31Z"/><path class="cls-2" d="M468.44,103c-4.44,21,6.38,29.25,26.91,29.25h32.39l1-4.87c.61-2.73-1.11-3.85-5-3.85H496.06c-10.62,0-13.86-9-11.53-20.11,2.64-12.15,9.41-19.09,19.83-19.09H531c3.84,0,6-1.11,6.57-3.84l1.11-4.91H505.47C484.53,75.53,471.89,86.87,468.44,103Z"/><path class="cls-2" d="M583.59,74.69c-21.67,0-34,5-38.76,26.35l-6.08,28.66c-.41,1.92.8,2.5,2.34,2.5h11.74l3.4-16.49h36.55l-3.4,16.49h11.73a3.12,3.12,0,0,0,3.42-2.5L610.62,101C615.09,79.32,601.68,74.69,583.59,74.69Zm12.78,24.62s-.54,2.62-.72,3.41c-.28,1.18-.87,4.22-4.3,4.22H558.2l1.62-7.63c2.32-11,9.37-15.06,21.94-15.06C595.05,84.25,598.52,88.82,596.37,99.31Z"/><path class="cls-2" d="M669.87,123.32H636.14l9.93-46.68c.21-1-.57-2-1.92-2H630.7L618.47,132.2h53.21l1.15-5.38C673.36,124.3,672.41,123.32,669.87,123.32Z"/><path class="cls-2" d="M346.84,132.23h11c3.07,0,4.85-1.16,5.48-4L371.32,90a1.14,1.14,0,0,0-1.11-1.38H357a1.18,1.18,0,0,0-1.14.92Z"/><path class="cls-2" d="M339.1,75.53c-3.08,0-4.82,1-5.27,3.07l-1.22,5.72H393c2.88,0,3.89-1.16,4.38-3.47l1.14-5.32Z"/></svg>