<svg id="Calque_1" data-name="Calque 1" xmlns="http://www.w3.org/2000/svg" viewBox="0 0 755.39 152.46"><defs><style>.cls-1,.cls-2{fill:#fff;}.cls-1{fill-rule:evenodd;}</style></defs><title>OUTSCALE_White_CMYK</title><path class="cls-1" d="M77.69,5.44c13.61-.6,29.73,2.11,32.73,11.1,4.92,14.73-20,36.2-41.75,46.74-5.33,2.59-8.56,3.29-9.9,3.12a1.43,1.43,0,0,1-1.07-2.19c.77-1.55,4.28-4.7,9-8.13,24.47-17.87,32.42-31,27.8-36.29-3-3.4-15.36-5.77-28.24-5.77-3.5,0-12.68.76-13.63-2.26C51.83,9.28,64.16,6,77.69,5.44Z"/><path class="cls-1" d="M47.25,72.57C58.57,72,72.32,73.75,80,79a11.77,11.77,0,0,1,5,13c-4.45,15.75-21.09,34.81-58,49.45C15.21,146.18,6,148,4,146.71S8,135,9.83,131.52a277,277,0,0,1,20.46-32c2.64-3.67,6.73-10,10.43-9.51,3.31.45-.57,7.21-3.12,11.5-4.29,7.21-16.1,27.24-12.2,28.43,8.61,2.65,49-24.9,43.07-40.25-2.77-7.12-20.31-7.8-31.36-7.8-5,0-16,1.06-16.62-2.39C19.84,76.31,37.17,73.11,47.25,72.57Z"/><path class="cls-1" d="M135.48,54c6.85,1.12,12.43,2,13.71,4.59,1.44,3-6,3.15-9.77,3.22-18,.31-28.89.63-29.43,6.16-.71,7.13,7.7,14.3,16,24.35,7.59,9.18,16.21,18.24,13.72,26.69-3.1,10.52-17.37,12.74-30.95,12.74a183.21,183.21,0,0,1-30.53-2.8c-6.46-1.16-5.5-4-3.78-5,1.92-1,12.89-1.06,20.52-1.47,6.27-.33,24.5-.33,27.34-4.54,3.48-5.17-5-14-12.88-23.27C99.65,83.13,88.92,71.21,94.6,62.5,102,51.23,123.46,52,135.48,54Z"/><path class="cls-2" d="M212.58,72.63c-25.51,0-39.22,13.1-42.55,28.76s4.82,28.76,30.32,28.76,39.23-13.1,42.56-28.76S238.08,72.63,212.58,72.63Zm14.56,28.76c-2.71,12.81-10.3,19.3-24.78,19.3s-19.3-6.49-16.57-19.3,10.3-19.31,24.78-19.31S229.87,88.59,227.14,101.39Z"/><path class="cls-2" d="M280.37,129.74c25.07,0,34.72-7.85,38.69-26L325,75.51c.39-1.89-.84-2.47-2.41-2.47H310.47L307.14,89.3,305.23,98l-1.59,7.52c-2.22,10.23-9.45,14.85-21.74,14.85-13.5,0-17.12-4.51-15-14.85,0,0,.51-2.59.69-3.36l2.79-12.81L273.72,73H261.6c-1.57,0-3.05.58-3.45,2.47l-6,28.25C248.12,123.67,259,129.74,280.37,129.74Z"/><path class="cls-2" d="M694.47,75.93,683,129.74h58.1l1.21-5.76c.51-2.34-.11-3.12-3-3.12h-38.6L704,105.43h34.11a1.79,1.79,0,0,0,1.85-1.37l1.31-6.13c.17-.77-.31-1.36-1.27-1.36H705.88l3.27-15.41h37.24c1.77,0,3.51,0,4-2.14l1.44-6.79H699.36C696.62,72.23,695,73.39,694.47,75.93Z"/><path class="cls-2" d="M458.09,120.17c1.72-4.24,1.71-8.62-2.48-12.94-2.15-2.2-5.29-4.13-9.65-6.39-19.39-10-24.45-11.17-23.22-16,.68-2.72,2.74-2.84,10.06-2.84h22.73c3.07,0,4.85-1.14,5.37-3.63L462,73h-28.8c-16.31,0-26.09.1-28.57,10.82-1.85,7.94,5,11.79,18.75,19.64,15.11,8.57,18.56,9.22,17.18,13.75-1.11,3.64-5.09,3.79-11.89,3.79H401.82c-3.07,0-4.84,1.15-5.38,3.64l-1.07,5.06H429.3C444.83,129.74,454.56,128.86,458.09,120.17Z"/><path class="cls-1" d="M583,72.2c-21.66,0-34,5-38.76,26.36l-6.08,28.65c-.41,1.92.81,2.5,2.36,2.5h11.73l3.4-16.49h36.54l-3.41,16.49h11.74a3.12,3.12,0,0,0,3.42-2.5L610,98.56C614.5,76.83,601.08,72.2,583,72.2Zm12.78,24.62s-.54,2.62-.73,3.42c-.26,1.17-.87,4.21-4.29,4.21H557.6l1.62-7.63c2.34-11,9.38-15,21.95-15C594.46,81.77,597.93,86.33,595.78,96.82Z"/><path class="cls-2" d="M467.85,100.46c-4.44,21,6.38,29.25,26.91,29.25h32.39l1-4.87c.62-2.73-1.11-3.85-4.95-3.85H495.47c-10.62,0-13.86-9-11.53-20.11,2.64-12.15,9.41-19.09,19.83-19.09h26.62c3.84,0,6-1.11,6.58-3.84L538.08,73h-33.2C483.94,73,471.3,84.38,467.85,100.46Z"/><path class="cls-2" d="M583,72.2c-21.67,0-34,5-38.76,26.36l-6.08,28.65c-.41,1.92.8,2.5,2.34,2.5h11.74l3.4-16.49h36.55l-3.4,16.49h11.73a3.12,3.12,0,0,0,3.42-2.5L610,98.56C614.5,76.83,601.09,72.2,583,72.2Zm12.78,24.62s-.54,2.62-.72,3.42c-.28,1.17-.87,4.21-4.3,4.21H557.61l1.62-7.63c2.32-11,9.37-15,21.94-15C594.46,81.77,597.93,86.33,595.78,96.82Z"/><path class="cls-2" d="M669.28,120.83H635.56l9.92-46.68c.21-1-.57-2-1.92-2H630.11l-12.23,57.51h53.21l1.15-5.37C672.77,121.81,671.82,120.83,669.28,120.83Z"/><path class="cls-2" d="M346.25,129.74H357.2c3.07,0,4.85-1.16,5.48-4l8.05-38.17a1.14,1.14,0,0,0-1.11-1.38H356.39a1.17,1.17,0,0,0-1.14.93Z"/><path class="cls-2" d="M338.51,73.05c-3.08,0-4.82,1-5.27,3.06L332,81.83h60.36c2.88,0,3.89-1.15,4.38-3.47l1.14-5.31Z"/></svg>